<svg width="131" height="26" viewBox="0 0 131 26" fill="none" xmlns="http://www.w3.org/2000/svg">
<path d="M0.441406 25V0.390625H3.5V21.9766H13.6602V25H0.441406ZM15.6289 19.7969V11.1133C15.6289 10.0117 16.1211 8.93359 17.1055 7.87891C18.3242 6.61328 19.8477 5.98047 21.6758 5.98047V8.82812C20.293 8.82812 19.332 9.40234 18.793 10.5508C18.6289 10.9023 18.5469 11.2539 18.5469 11.6055V19.3398C18.5469 20.207 18.9453 20.9453 19.7422 21.5547C20.3047 21.9766 20.9492 22.1875 21.6758 22.1875V25.0352C19.4492 25.0352 17.7266 24.1328 16.5078 22.3281C15.9219 21.4375 15.6289 20.5938 15.6289 19.7969ZM23.1875 25.0352V22.1875C24.4297 22.1875 25.3203 21.625 25.8594 20.5C26.0469 20.125 26.1406 19.7617 26.1406 19.4102V11.6055C26.1406 10.6445 25.7305 9.88281 24.9102 9.32031C24.3945 8.99219 23.8086 8.82812 23.1523 8.82812V5.98047C25.3086 5.98047 26.9727 6.85938 28.1445 8.61719C28.7305 9.48438 29.0234 10.3164 29.0234 11.1133V19.7969C29.0234 20.9453 28.5312 22.0586 27.5469 23.1367C26.3984 24.3789 24.9453 25.0117 23.1875 25.0352ZM31.168 10.4102V7.52734H33.4883V5.48828C33.4883 4.17578 33.9219 2.98047 34.7891 1.90234C35.75 0.777344 36.9922 0.203125 38.5156 0.179688H39.8164L39.1484 3.02734H38.4805C37.1445 3.09766 36.4648 3.91797 36.4414 5.48828V7.5625L38.832 7.52734V10.4102H36.4414V25H33.4883V10.4102H31.168ZM40.8008 9.03906V6.19141H43.1211V0.109375H46.1094V6.19141H48.3594V9.07422H46.1094V19.1641C46.1094 20.8281 46.7891 21.7539 48.1484 21.9414C48.4062 21.9883 48.6641 22.0117 48.9219 22.0117H49.4141L50.082 25H48.8164C45.9336 24.9766 44.1641 23.8984 43.5078 21.7656C43.2734 20.9688 43.1562 19.9844 43.1562 18.8125L43.1211 9.03906H40.8008ZM51.6641 25V0.390625H54.7227V11.1133H57.8867V14.1016H54.7227V25H51.6641ZM59.6445 14.1016V11.1133H62.7734V0.390625H65.8672V25H62.7734V14.1016H59.6445ZM68.6094 19.7969V11.1133C68.6094 10.0117 69.1016 8.93359 70.0859 7.87891C71.3047 6.61328 72.8281 5.98047 74.6562 5.98047V8.82812C73.2734 8.82812 72.3125 9.40234 71.7734 10.5508C71.6094 10.9023 71.5273 11.2539 71.5273 11.6055V19.3398C71.5273 20.207 71.9258 20.9453 72.7227 21.5547C73.2852 21.9766 73.9297 22.1875 74.6562 22.1875V25.0352C72.4297 25.0352 70.707 24.1328 69.4883 22.3281C68.9023 21.4375 68.6094 20.5938 68.6094 19.7969ZM76.168 25.0352V22.1875C77.4102 22.1875 78.3008 21.625 78.8398 20.5C79.0273 20.125 79.1211 19.7617 79.1211 19.4102V11.6055C79.1211 10.6445 78.7109 9.88281 77.8906 9.32031C77.375 8.99219 76.7891 8.82812 76.1328 8.82812V5.98047C78.2891 5.98047 79.9531 6.85938 81.125 8.61719C81.7109 9.48438 82.0039 10.3164 82.0039 11.1133V19.7969C82.0039 20.9453 81.5117 22.0586 80.5273 23.1367C79.3789 24.3789 77.9258 25.0117 76.168 25.0352ZM84.6758 19.9375V6.01562H87.6641V19.5859C87.6641 20.4297 88.0859 21.1328 88.9297 21.6953C89.4922 22.0469 90.1133 22.2227 90.793 22.2227V25.1758C88.543 25.1758 86.8086 24.2969 85.5898 22.5391C84.9805 21.6484 84.6758 20.7812 84.6758 19.9375ZM92.3398 25.1758V22.2227C93.6055 22.2227 94.5312 21.7188 95.1172 20.7109C95.3281 20.3359 95.4336 19.9609 95.4336 19.5859V6.01562H98.4219V19.9375C98.4219 21.0391 97.918 22.1289 96.9102 23.207C95.6914 24.4961 94.168 25.1523 92.3398 25.1758ZM100.461 20.0078L103.238 19.4805C103.238 20.5352 103.789 21.3672 104.891 21.9766C105.43 22.2344 105.945 22.375 106.438 22.3984V25.1758C104.164 25.1758 102.465 24.3555 101.34 22.7148C100.754 21.8477 100.461 20.9453 100.461 20.0078ZM100.637 11.3594C100.637 9.22656 101.609 7.64453 103.555 6.61328C104.492 6.12109 105.43 5.875 106.367 5.875V8.61719C105.289 8.61719 104.457 9.0625 103.871 9.95312C103.566 10.3984 103.414 10.8672 103.414 11.3594C103.414 12.1094 104 12.7188 105.172 13.1875C106.062 13.5625 107.785 14.0547 110.34 14.6641C111.934 14.9922 113.07 15.7773 113.75 17.0195C114.102 17.6758 114.277 18.4141 114.277 19.2344C114.277 21.4844 113.375 23.1484 111.57 24.2266C110.516 24.8594 109.309 25.1758 107.949 25.1758V22.3984C109.027 22.3984 109.93 22.0234 110.656 21.2734C111.172 20.7344 111.43 20.1016 111.43 19.375C111.43 18.4375 110.504 17.6875 108.652 17.125C108.184 16.9844 107.434 16.7852 106.402 16.5273C105.301 16.2695 104.504 16.0586 104.012 15.8945C102.23 15.1914 101.152 14.125 100.777 12.6953C100.684 12.2734 100.637 11.8281 100.637 11.3594ZM107.914 8.65234V5.875C109.93 5.875 111.559 6.625 112.801 8.125C113.574 9.08594 113.961 10.0938 113.961 11.1484L111.184 11.6055C111.184 10.3164 110.48 9.41406 109.074 8.89844C108.652 8.73438 108.266 8.65234 107.914 8.65234ZM116.352 19.7969V11.0781C116.375 10 116.891 8.93359 117.898 7.87891C119.117 6.63672 120.594 6.00391 122.328 5.98047V8.75781C121.203 8.75781 120.324 9.25 119.691 10.2344C119.434 10.6562 119.305 11.043 119.305 11.3945V13.7852H127.18V11.3945C127.18 10.3398 126.641 9.56641 125.562 9.07422C125.07 8.83984 124.566 8.72266 124.051 8.72266V5.98047C125.668 5.98047 127.109 6.55469 128.375 7.70312C129.43 8.71094 129.969 9.82422 129.992 11.043V16.6328H119.305V19.7969C119.305 20.4531 119.68 21.0625 120.43 21.625C121.039 22.0469 121.684 22.2578 122.363 22.2578V25C120.23 25 118.555 24.1328 117.336 22.3984C116.68 21.4844 116.352 20.6172 116.352 19.7969ZM124.051 25V22.2227C125.457 22.2227 126.512 21.6133 127.215 20.3945C127.355 20.1367 127.461 19.8906 127.531 19.6562L130.027 20.5703C129.605 22.1875 128.645 23.4062 127.145 24.2266C126.184 24.7422 125.152 25 124.051 25Z" fill="white"/>
</svg>
